<svg width="18" height="18" viewBox="0 0 18 18" fill="none" xmlns="http://www.w3.org/2000/svg">
<g opacity="0.8">
<path fill-rule="evenodd" clip-rule="evenodd" d="M7.45769 2.4375H10.5423C11.9206 2.43749 13.0124 2.43748 13.8668 2.55235C14.7461 2.67057 15.4578 2.91966 16.0191 3.48093C16.5803 4.04221 16.8294 4.75392 16.9476 5.63323C17.0625 6.48764 17.0625 7.57937 17.0625 8.95769V9.04231C17.0625 10.4206 17.0625 11.5124 16.9476 12.3668C16.8294 13.2461 16.5803 13.9578 16.0191 14.5191C15.4578 15.0803 14.7461 15.3294 13.8668 15.4476C13.0124 15.5625 11.9206 15.5625 10.5423 15.5625H7.45769C6.07937 15.5625 4.98764 15.5625 4.13323 15.4476C3.25392 15.3294 2.54221 15.0803 1.98093 14.5191C1.41966 13.9578 1.17057 13.2461 1.05235 12.3668C0.937479 11.5124 0.937488 10.4206 0.9375 9.04231V8.95769C0.937488 7.57937 0.937479 6.48764 1.05235 5.63323C1.17057 4.75392 1.41966 4.04221 1.98093 3.48093C2.54221 2.91966 3.25392 2.67057 4.13323 2.55235C4.98764 2.43748 6.07937 2.43749 7.45769 2.4375ZM4.28314 3.66732C3.52857 3.76877 3.09384 3.95902 2.77643 4.27643C2.45902 4.59384 2.26877 5.02857 2.16732 5.78314C2.0637 6.55389 2.0625 7.56989 2.0625 9C2.0625 10.4301 2.0637 11.4461 2.16732 12.2169C2.26877 12.9714 2.45902 13.4062 2.77643 13.7236C3.09384 14.041 3.52857 14.2312 4.28314 14.3327C5.05388 14.4363 6.06988 14.4375 7.5 14.4375H10.5C11.9301 14.4375 12.9461 14.4363 13.7169 14.3327C14.4714 14.2312 14.9062 14.041 15.2236 13.7236C15.541 13.4062 15.7312 12.9714 15.8327 12.2169C15.9363 11.4461 15.9375 10.4301 15.9375 9C15.9375 7.56989 15.9363 6.55389 15.8327 5.78314C15.7312 5.02857 15.541 4.59384 15.2236 4.27643C14.9062 3.95902 14.4714 3.76877 13.7169 3.66732C12.9461 3.5637 11.9301 3.5625 10.5 3.5625H7.5C6.06989 3.5625 5.05389 3.5637 4.28314 3.66732ZM4.06788 5.6399C4.26676 5.40124 4.62145 5.369 4.8601 5.56788L6.47928 6.91719C7.179 7.50029 7.6648 7.90381 8.07494 8.1676C8.47196 8.42294 8.7412 8.50866 9 8.50866C9.2588 8.50866 9.52804 8.42294 9.92506 8.1676C10.3352 7.90381 10.821 7.50029 11.5207 6.91718L13.1399 5.56788C13.3786 5.369 13.7332 5.40124 13.9321 5.6399C14.131 5.87855 14.0988 6.23325 13.8601 6.43213L12.2127 7.80493C11.548 8.35892 11.0092 8.80794 10.5336 9.11379C10.0382 9.4324 9.55581 9.63366 9 9.63366C8.44419 9.63366 7.96176 9.4324 7.46638 9.11379C6.99084 8.80794 6.45204 8.35893 5.78727 7.80494L4.1399 6.43213C3.90124 6.23324 3.869 5.87855 4.06788 5.6399Z" fill="white"/>
</g>
</svg>
