<svg width="70" height="70" viewBox="0 0 70 70" fill="none" xmlns="http://www.w3.org/2000/svg">
<g clip-path="url(#clip0_1420_1354)">
<path d="M37.0586 34.9468H70V43.8674H37.0586V34.9468ZM55.5878 47.969H70V56.9779H55.5878V47.969ZM18.5292 47.969H51.4862V56.8896H18.5292V47.969ZM0 47.969H14.4277V56.9779H0V47.969ZM37.0586 61.0794H70V70H37.0586V61.0794ZM0 61.0794H32.957V70H0V61.0794ZM1.43568 30.4531C-0.478516 32.3673 -0.478516 35.4821 1.43568 37.3963C2.39271 38.3534 3.64998 38.832 4.90725 38.832C6.16451 38.832 7.42164 38.3534 8.37881 37.3963L15.2879 30.4872L8.34477 23.5441L1.43568 30.4531ZM38.8257 0.00615234L30.5877 0H30.5755C26.477 0 22.6237 1.59605 19.7251 4.49463L14.4636 9.75598L16.0085 19.9232L12.8006 23.1312L15.7008 26.0312L18.9088 22.8233L29.076 24.3682L34.3373 19.1067C37.2389 16.2051 38.8351 12.3475 38.832 8.24414L38.8257 0.00615234Z" fill="white"/>
</g>
<defs>
<clipPath id="clip0_1420_1354">
<rect width="70" height="70" fill="white"/>
</clipPath>
</defs>
</svg>
