<svg width="18" height="18" viewBox="0 0 18 18" fill="none" xmlns="http://www.w3.org/2000/svg">
<g opacity="0.8">
<path fill-rule="evenodd" clip-rule="evenodd" d="M4.50559 2.55514C5.76564 1.29509 7.892 1.39088 8.76936 2.96297L9.25612 3.83517C9.82906 4.86179 9.5849 6.1571 8.74618 7.00607C8.73501 7.02138 8.67581 7.10758 8.66843 7.25819C8.65902 7.45043 8.72729 7.89501 9.41611 8.58383C10.1047 9.27243 10.5492 9.34087 10.7416 9.33152C10.8923 9.32419 10.9786 9.26495 10.9939 9.25376C11.8429 8.41504 13.1382 8.17089 14.1648 8.74383L15.037 9.23059C16.6091 10.108 16.7049 12.2343 15.4448 13.4944C14.7708 14.1684 13.8746 14.7672 12.8215 14.8071C11.2608 14.8663 8.66935 14.4633 6.10301 11.8969C3.53667 9.3306 3.13363 6.73917 3.1928 5.17848C3.23272 4.12533 3.83159 3.22914 4.50559 2.55514ZM7.78699 3.51122C7.33773 2.70621 6.13046 2.52127 5.30108 3.35064C4.71957 3.93215 4.34152 4.57401 4.31699 5.22109C4.26765 6.5226 4.58898 8.79192 6.89851 11.1014C9.20803 13.411 11.4773 13.7323 12.7789 13.683C13.4259 13.6584 14.0678 13.2804 14.6493 12.6989C15.4787 11.8695 15.2937 10.6622 14.4887 10.213L13.6165 9.7262C13.074 9.42341 12.3119 9.52669 11.7769 10.0617L11.7767 10.0618C11.7242 10.1143 11.3898 10.4263 10.7962 10.4552C10.1886 10.4847 9.453 10.2117 8.62062 9.37933C7.78796 8.54667 7.51502 7.81092 7.54478 7.20317C7.57384 6.60954 7.88601 6.27533 7.93824 6.22309L7.93827 6.22307C8.47325 5.68808 8.57654 4.92598 8.27375 4.38342L7.78699 3.51122Z" fill="white"/>
</g>
</svg>
