<svg width="20" height="17" viewBox="0 0 20 17" fill="none" xmlns="http://www.w3.org/2000/svg">
<path d="M8.64151 0.901709C9.18084 -0.250285 10.8192 -0.250287 11.3585 0.901707L12.8694 4.12907C13.0971 4.61542 13.5675 4.94294 14.1026 4.98781L17.6723 5.28716C19.0221 5.40035 19.5424 7.10311 18.4863 7.95137L15.9851 9.96043C15.5298 10.3262 15.3281 10.923 15.4684 11.49L16.2346 14.5883C16.548 15.8554 15.2055 16.8905 14.0598 16.2651L10.7187 14.4413C10.2708 14.1968 9.72924 14.1968 9.28131 14.4413L5.9402 16.2651C4.79451 16.8905 3.45202 15.8554 3.76538 14.5883L4.53164 11.49C4.67186 10.923 4.47022 10.3262 4.01486 9.96043L1.51366 7.95137C0.457623 7.10311 0.977875 5.40035 2.32767 5.28716L5.89741 4.98781C6.43254 4.94294 6.90286 4.61542 7.13056 4.12907L8.64151 0.901709Z" fill="#FF662D"/>
</svg>
